# Blender 5.1.1
# www.blender.org
o CrystalBlock
v -0.480000 -0.180000 0.480000
v 0.480000 -0.180000 0.480000
v 0.480000 -0.180000 -0.480000
v -0.480000 -0.180000 -0.480000
v -0.350000 0.220000 0.350000
v 0.350000 0.220000 0.350000
v 0.350000 0.220000 -0.350000
v -0.350000 0.220000 -0.350000
vn -0.0000 -1.0000 -0.0000
vn -0.0000 1.0000 -0.0000
vn -0.0000 0.3091 0.9510
vn 0.9510 0.3091 -0.0000
vn -0.0000 0.3091 -0.9510
vn -0.9510 0.3091 -0.0000
vt 0.020000 0.020000
vt 0.020000 0.980000
vt 0.980000 0.980000
vt 0.980000 0.020000
vt 0.150000 0.150000
vt 0.850000 0.150000
vt 0.850000 0.850000
vt 0.150000 0.850000
s 0
f 1/1/1 4/2/1 3/3/1 2/4/1
f 5/5/2 6/6/2 7/7/2 8/8/2
f 1/1/3 2/4/3 6/6/3 5/5/3
f 2/4/4 3/3/4 7/7/4 6/6/4
f 3/3/5 4/2/5 8/8/5 7/7/5
f 4/2/6 1/1/6 5/5/6 8/8/6
